<svg xmlns="http://www.w3.org/2000/svg" width="57" height="57" viewBox="0 0 57 57">
    <g fill="#E83F3F" fill-rule="nonzero">
        <circle cx="28.739" cy="28.261" r="11.534"/>
        <path d="M52.277 8.689a3.961 3.961 0 0 0-6.562-2.994C33.858-3.227 17.12-1.459 7.388 9.744-2.343 20.946-1.752 37.767 8.74 48.26c10.493 10.493 27.314 11.083 38.516 1.352 11.203-9.732 12.97-26.47 4.049-38.327.627-.72.973-1.642.972-2.596zM28.74 55.563A27.303 27.303 0 1 1 45.073 6.399a3.961 3.961 0 0 0 5.523 5.523 27.303 27.303 0 0 1-21.857 43.641z"/>
    </g>
</svg>
