<svg xmlns="http://www.w3.org/2000/svg" width="59" height="40" viewBox="0 0 59 40">
    <g fill="#E83F3F" fill-rule="nonzero">
        <path d="M48.028 11.268c-1.405-4.01-7.168-4.01-8.292-.692-1.124 3.319 2.67 5.254 8.573 7.19 5.903 1.936 9.558 7.052 8.855 11.615-.703 4.562-2.67 10.508-14.336 10.508-7.29 0-11.342-4.483-13.356-7.845l6.61-3.908s2.249 4.701 6.465 4.701c4.216 0 5.903-1.382 5.903-4.562 0-3.872-13.633-5.254-15.741-11.891-2.108-6.637.703-16.04 10.54-15.348 6.15.432 9.608 3.403 11.338 5.57l-6.559 4.662zM17.25 1.694v26.542c0 3.18-2.825 4.839-5.652 4.286-2.826-.553-4.098-3.87-4.098-3.87L1 32.936s1.413 6.359 10.316 6.912c8.902.553 13.99-4.7 13.99-9.124V1.695H17.25z"/>
    </g>
</svg>
