<svg xmlns="http://www.w3.org/2000/svg" width="60" height="57" viewBox="0 0 60 57">
    <g fill="#E83F3F" fill-rule="nonzero" transform="translate(1 2)">
        <circle cx="29.299" cy="26.043" r="5.302"/>
        <path d="M49.436 17.3a51.865 51.865 0 0 0-3.209-1.07 46.65 46.65 0 0 0 .698-3.301c.976-6.14-.093-10.464-3.07-12.138-.883-.512-1.86-.744-2.976-.744-3.256 0-7.395 2.418-11.58 6.464C25.113 2.465 20.974.047 17.719.047c-1.116 0-2.093.232-2.977.744-2.976 1.72-4.046 6.045-3.069 12.138a46.65 46.65 0 0 0 .698 3.302c-1.117.325-2.186.65-3.21 1.07C3.349 19.532.187 22.601.187 26.042c0 3.442 3.209 6.511 8.976 8.744 1.023.372 2.092.744 3.209 1.07a46.65 46.65 0 0 0-.698 3.301c-.977 6.139.093 10.464 3.07 12.138.883.512 1.86.744 2.976.744 3.302 0 7.44-2.418 11.58-6.464 4.185 4.046 8.324 6.464 11.58 6.464 1.116 0 2.093-.232 2.976-.744 2.977-1.72 4.046-6.046 3.07-12.138a46.65 46.65 0 0 0-.698-3.302c1.116-.325 2.186-.65 3.209-1.07 5.813-2.232 8.976-5.301 8.976-8.743 0-3.441-3.163-6.51-8.976-8.743zM42.553 3.116c1.907 1.116 2.558 4.558 1.767 9.44-.14.977-.372 2-.65 3.07-2.42-.558-4.977-.93-7.674-1.163a67.1 67.1 0 0 0-4.837-6.045c3.442-3.395 6.93-5.72 9.766-5.72.605 0 1.163.139 1.628.418zm-5.209 27.578c-.837 1.488-1.813 2.976-2.836 4.465-1.721.14-3.442.186-5.21.186-1.813 0-3.534-.047-5.208-.186a58.59 58.59 0 0 1-2.79-4.465 74.927 74.927 0 0 1-2.465-4.65 74.927 74.927 0 0 1 2.465-4.651c.837-1.488 1.814-2.977 2.837-4.465 1.72-.14 3.441-.186 5.208-.186 1.814 0 3.535.047 5.21.186a58.59 58.59 0 0 1 2.79 4.465 74.927 74.927 0 0 1 2.464 4.65c-.79 1.535-1.581 3.07-2.465 4.651zm3.86-1.535c.698 1.628 1.256 3.21 1.768 4.79-1.582.373-3.256.652-5.023.884.558-.884 1.163-1.814 1.674-2.79.558-.977 1.07-1.954 1.581-2.884zM29.3 41.763a52.287 52.287 0 0 1-3.21-3.86c1.07.046 2.14.093 3.21.093 1.07 0 2.14-.047 3.209-.094a52.287 52.287 0 0 1-3.21 3.86zm-8.65-6.976c-1.768-.233-3.442-.512-5.023-.884.512-1.535 1.07-3.162 1.767-4.79.512.93 1.023 1.907 1.582 2.837.558 1.023 1.116 1.906 1.674 2.837zm-3.256-11.86c-.697-1.627-1.255-3.208-1.767-4.79 1.581-.372 3.255-.65 5.023-.883-.558.883-1.163 1.814-1.674 2.79-.559.977-1.07 1.953-1.582 2.884zM29.3 10.325a52.287 52.287 0 0 1 3.209 3.86c-1.07-.046-2.14-.093-3.21-.093-1.069 0-2.138.047-3.208.093a52.287 52.287 0 0 1 3.209-3.86zm10.324 9.767L37.95 17.3c1.767.232 3.441.51 5.023.883-.512 1.535-1.07 3.162-1.768 4.79-.511-.977-1.023-1.953-1.58-2.883zm-25.346-7.534c-.79-4.883-.14-8.325 1.768-9.441.465-.28 1.023-.419 1.627-.419 2.79 0 6.279 2.28 9.767 5.72-1.628 1.768-3.256 3.814-4.837 6.046a63.228 63.228 0 0 0-7.674 1.163c-.279-1.07-.465-2.093-.65-3.07zM2.79 26.043c0-2.185 2.651-4.51 7.302-6.231.93-.372 1.953-.698 2.976-.977a67.786 67.786 0 0 0 2.79 7.255c-1.116 2.465-2.092 4.883-2.79 7.208-6.418-1.86-10.278-4.65-10.278-7.255zm13.255 22.928c-1.907-1.116-2.558-4.558-1.768-9.44.14-.977.372-2 .651-3.07 2.419.558 4.977.93 7.674 1.162a67.1 67.1 0 0 0 4.837 6.046c-3.442 3.395-6.93 5.72-9.767 5.72-.604 0-1.162-.139-1.627-.418zm28.275-9.44c.79 4.882.14 8.324-1.767 9.44-.465.279-1.023.419-1.628.419-2.79 0-6.278-2.28-9.766-5.72 1.628-1.768 3.256-3.814 4.837-6.047a63.228 63.228 0 0 0 7.673-1.162c.28 1.07.465 2.093.651 3.07zm4.186-7.256c-.93.372-1.953.698-2.976.977a67.786 67.786 0 0 0-2.79-7.255c1.115-2.465 2.092-4.883 2.79-7.209 6.417 1.86 10.277 4.651 10.277 7.255 0 2.186-2.697 4.512-7.301 6.232z"/>
    </g>
</svg>
